<svg width="163" height="19" viewBox="0 0 163 19" fill="none" xmlns="http://www.w3.org/2000/svg">
    <path d="M1.448 18C1.288 18 1.152 17.944 1.04 17.832C0.928 17.72 0.872 17.584 0.872 17.424V1.776C0.872 1.6 0.928 1.464 1.04 1.368C1.152 1.256 1.288 1.2 1.448 1.2H3.704C3.88 1.2 4.016 1.256 4.112 1.368C4.224 1.464 4.28 1.6 4.28 1.776V17.424C4.28 17.584 4.224 17.72 4.112 17.832C4.016 17.944 3.88 18 3.704 18H1.448ZM8.33188 18C8.17188 18 8.03588 17.944 7.92388 17.832C7.81188 17.72 7.75587 17.584 7.75587 17.424V6.096C7.75587 5.936 7.81188 5.8 7.92388 5.688C8.03588 5.576 8.17188 5.52 8.33188 5.52H10.2999C10.4599 5.52 10.5959 5.576 10.7079 5.688C10.8199 5.8 10.8759 5.936 10.8759 6.096V7.08C11.8199 5.88 13.1559 5.28 14.8839 5.28C16.3559 5.28 17.5239 5.768 18.3879 6.744C19.2519 7.704 19.6839 9.016 19.6839 10.68V17.424C19.6839 17.584 19.6279 17.72 19.5159 17.832C19.4199 17.944 19.2839 18 19.1079 18H16.9959C16.8359 18 16.6999 17.944 16.5879 17.832C16.4759 17.72 16.4199 17.584 16.4199 17.424V10.824C16.4199 9.88 16.1879 9.152 15.7239 8.64C15.2759 8.112 14.6199 7.848 13.7559 7.848C12.9079 7.848 12.2359 8.112 11.7399 8.64C11.2599 9.168 11.0199 9.896 11.0199 10.824V17.424C11.0199 17.584 10.9639 17.72 10.8519 17.832C10.7559 17.944 10.6199 18 10.4439 18H8.33188ZM28.1324 18.24C26.3724 18.24 24.9644 17.752 23.9084 16.776C22.8684 15.8 22.3164 14.448 22.2524 12.72L22.2284 11.76L22.2524 10.8C22.3164 9.072 22.8684 7.72 23.9084 6.744C24.9644 5.768 26.3724 5.28 28.1324 5.28C29.3804 5.28 30.4364 5.504 31.3004 5.952C32.1804 6.4 32.8284 6.952 33.2444 7.608C33.6764 8.248 33.9084 8.856 33.9404 9.432C33.9564 9.592 33.9004 9.728 33.7724 9.84C33.6604 9.952 33.5244 10.008 33.3644 10.008H31.2524C31.0924 10.008 30.9644 9.976 30.8684 9.912C30.7884 9.832 30.7084 9.704 30.6284 9.528C30.3884 8.904 30.0684 8.456 29.6684 8.184C29.2844 7.912 28.7884 7.776 28.1804 7.776C27.3644 7.776 26.7244 8.04 26.2604 8.568C25.7964 9.08 25.5484 9.864 25.5164 10.92L25.4924 11.808L25.5164 12.6C25.5804 14.696 26.4684 15.744 28.1804 15.744C28.8044 15.744 29.3084 15.608 29.6924 15.336C30.0764 15.064 30.3884 14.616 30.6284 13.992C30.7084 13.816 30.7884 13.696 30.8684 13.632C30.9644 13.552 31.0924 13.512 31.2524 13.512H33.3644C33.5244 13.512 33.6604 13.568 33.7724 13.68C33.9004 13.792 33.9564 13.928 33.9404 14.088C33.9084 14.648 33.6844 15.248 33.2684 15.888C32.8524 16.528 32.2124 17.08 31.3484 17.544C30.4844 18.008 29.4124 18.24 28.1324 18.24ZM37.0194 18C36.8594 18 36.7234 17.944 36.6114 17.832C36.4994 17.72 36.4434 17.584 36.4434 17.424V6.12C36.4434 5.96 36.4994 5.824 36.6114 5.712C36.7234 5.584 36.8594 5.52 37.0194 5.52H38.9634C39.1394 5.52 39.2834 5.576 39.3954 5.688C39.5074 5.8 39.5634 5.944 39.5634 6.12V7.104C39.9474 6.592 40.4274 6.2 41.0034 5.928C41.5954 5.656 42.2674 5.52 43.0194 5.52H44.0034C44.1794 5.52 44.3154 5.576 44.4114 5.688C44.5234 5.784 44.5794 5.92 44.5794 6.096V7.824C44.5794 7.984 44.5234 8.12 44.4114 8.232C44.3154 8.344 44.1794 8.4 44.0034 8.4H42.1314C41.3794 8.4 40.7874 8.616 40.3554 9.048C39.9234 9.48 39.7074 10.072 39.7074 10.824V17.424C39.7074 17.584 39.6514 17.72 39.5394 17.832C39.4274 17.944 39.2834 18 39.1074 18H37.0194ZM51.6631 18.24C49.8871 18.24 48.4711 17.728 47.4151 16.704C46.3751 15.664 45.8231 14.208 45.7591 12.336L45.7351 11.736L45.7591 11.136C45.8391 9.312 46.3991 7.88 47.4391 6.84C48.4951 5.8 49.9031 5.28 51.6631 5.28C53.5511 5.28 55.0071 5.856 56.0311 7.008C57.0711 8.16 57.5911 9.696 57.5911 11.616V12.12C57.5911 12.28 57.5351 12.416 57.4231 12.528C57.3111 12.64 57.1671 12.696 56.9911 12.696H49.0231V12.888C49.0551 13.768 49.2951 14.512 49.7431 15.12C50.2071 15.712 50.8391 16.008 51.6391 16.008C52.5831 16.008 53.3431 15.64 53.9191 14.904C54.0631 14.728 54.1751 14.616 54.2551 14.568C54.3511 14.52 54.4871 14.496 54.6631 14.496H56.7271C56.8711 14.496 56.9911 14.544 57.0871 14.64C57.1991 14.72 57.2551 14.824 57.2551 14.952C57.2551 15.336 57.0231 15.792 56.5591 16.32C56.1111 16.832 55.4631 17.28 54.6151 17.664C53.7671 18.048 52.7831 18.24 51.6631 18.24ZM54.3271 10.68V10.608C54.3271 9.664 54.0871 8.904 53.6071 8.328C53.1431 7.752 52.4951 7.464 51.6631 7.464C50.8311 7.464 50.1831 7.752 49.7191 8.328C49.2551 8.904 49.0231 9.664 49.0231 10.608V10.68H54.3271ZM64.7707 18.24C63.1547 18.24 61.9147 17.72 61.0507 16.68C60.1867 15.64 59.7227 14.256 59.6587 12.528L59.6347 11.736L59.6587 10.968C59.7067 9.288 60.1627 7.92 61.0267 6.864C61.9067 5.808 63.1547 5.28 64.7707 5.28C66.3227 5.28 67.5547 5.808 68.4667 6.864V1.536C68.4667 1.36 68.5227 1.224 68.6347 1.128C68.7467 1.016 68.8827 0.959999 69.0427 0.959999H71.0827C71.2587 0.959999 71.3947 1.016 71.4907 1.128C71.6027 1.224 71.6587 1.36 71.6587 1.536V17.424C71.6587 17.584 71.6027 17.72 71.4907 17.832C71.3947 17.944 71.2587 18 71.0827 18H69.1867C69.0267 18 68.8907 17.944 68.7787 17.832C68.6667 17.72 68.6107 17.584 68.6107 17.424V16.536C67.6987 17.672 66.4187 18.24 64.7707 18.24ZM65.6587 15.672C66.5867 15.672 67.2747 15.376 67.7227 14.784C68.1707 14.192 68.4187 13.464 68.4667 12.6C68.4827 12.408 68.4907 12.096 68.4907 11.664C68.4907 11.248 68.4827 10.944 68.4667 10.752C68.4347 9.952 68.1787 9.272 67.6987 8.712C67.2347 8.136 66.5547 7.848 65.6587 7.848C63.9307 7.848 63.0107 8.912 62.8987 11.04L62.8747 11.76L62.8987 12.48C63.0107 14.608 63.9307 15.672 65.6587 15.672ZM75.3374 3.456C75.1774 3.456 75.0414 3.4 74.9294 3.288C74.8174 3.176 74.7614 3.04 74.7614 2.88V1.152C74.7614 0.992 74.8174 0.855999 74.9294 0.743999C75.0414 0.631999 75.1774 0.576 75.3374 0.576H77.5214C77.6814 0.576 77.8174 0.631999 77.9294 0.743999C78.0574 0.855999 78.1214 0.992 78.1214 1.152V2.88C78.1214 3.04 78.0654 3.176 77.9534 3.288C77.8414 3.4 77.6974 3.456 77.5214 3.456H75.3374ZM75.4334 18C75.2734 18 75.1374 17.944 75.0254 17.832C74.9134 17.72 74.8574 17.584 74.8574 17.424V6.096C74.8574 5.936 74.9134 5.8 75.0254 5.688C75.1374 5.576 75.2734 5.52 75.4334 5.52H77.4254C77.6014 5.52 77.7374 5.576 77.8334 5.688C77.9454 5.784 78.0014 5.92 78.0014 6.096V17.424C78.0014 17.584 77.9454 17.72 77.8334 17.832C77.7374 17.944 77.6014 18 77.4254 18H75.4334ZM88.0976 18.24C86.4496 18.24 85.1696 17.672 84.2576 16.536V17.424C84.2576 17.584 84.2016 17.72 84.0896 17.832C83.9936 17.944 83.8576 18 83.6816 18H81.7856C81.6256 18 81.4896 17.944 81.3776 17.832C81.2656 17.72 81.2096 17.584 81.2096 17.424V1.536C81.2096 1.36 81.2656 1.224 81.3776 1.128C81.4896 1.016 81.6256 0.959999 81.7856 0.959999H83.8256C84.0016 0.959999 84.1376 1.016 84.2336 1.128C84.3456 1.224 84.4016 1.36 84.4016 1.536V6.864C85.3136 5.808 86.5456 5.28 88.0976 5.28C89.7136 5.28 90.9536 5.808 91.8176 6.864C92.6816 7.92 93.1456 9.288 93.2096 10.968C93.2256 11.16 93.2336 11.416 93.2336 11.736C93.2336 12.072 93.2256 12.336 93.2096 12.528C93.1456 14.256 92.6816 15.64 91.8176 16.68C90.9536 17.72 89.7136 18.24 88.0976 18.24ZM87.2096 15.672C88.9376 15.672 89.8576 14.608 89.9696 12.48C89.9856 12.32 89.9936 12.08 89.9936 11.76C89.9936 11.44 89.9856 11.2 89.9696 11.04C89.8576 8.912 88.9376 7.848 87.2096 7.848C86.3136 7.848 85.6256 8.136 85.1456 8.712C84.6816 9.272 84.4336 9.952 84.4016 10.752L84.3776 11.664L84.4016 12.6C84.4496 13.464 84.6976 14.192 85.1456 14.784C85.5936 15.376 86.2816 15.672 87.2096 15.672ZM96.5043 18C96.3443 18 96.2083 17.944 96.0963 17.832C95.9843 17.72 95.9283 17.584 95.9283 17.424V1.536C95.9283 1.36 95.9843 1.224 96.0963 1.128C96.2083 1.016 96.3443 0.959999 96.5043 0.959999H98.4963C98.6723 0.959999 98.8083 1.016 98.9043 1.128C99.0163 1.224 99.0723 1.36 99.0723 1.536V17.424C99.0723 17.584 99.0163 17.72 98.9043 17.832C98.8083 17.944 98.6723 18 98.4963 18H96.5043ZM107.632 18.24C105.856 18.24 104.44 17.728 103.384 16.704C102.344 15.664 101.792 14.208 101.728 12.336L101.704 11.736L101.728 11.136C101.808 9.312 102.368 7.88 103.408 6.84C104.464 5.8 105.872 5.28 107.632 5.28C109.52 5.28 110.976 5.856 112 7.008C113.04 8.16 113.56 9.696 113.56 11.616V12.12C113.56 12.28 113.504 12.416 113.392 12.528C113.28 12.64 113.136 12.696 112.96 12.696H104.992V12.888C105.024 13.768 105.264 14.512 105.712 15.12C106.176 15.712 106.808 16.008 107.608 16.008C108.552 16.008 109.312 15.64 109.888 14.904C110.032 14.728 110.144 14.616 110.224 14.568C110.32 14.52 110.456 14.496 110.632 14.496H112.696C112.84 14.496 112.96 14.544 113.056 14.64C113.168 14.72 113.224 14.824 113.224 14.952C113.224 15.336 112.992 15.792 112.528 16.32C112.08 16.832 111.432 17.28 110.584 17.664C109.736 18.048 108.752 18.24 107.632 18.24ZM110.296 10.68V10.608C110.296 9.664 110.056 8.904 109.576 8.328C109.112 7.752 108.464 7.464 107.632 7.464C106.8 7.464 106.152 7.752 105.688 8.328C105.224 8.904 104.992 9.664 104.992 10.608V10.68H110.296ZM116.539 18C116.379 18 116.243 17.944 116.131 17.832C116.019 17.72 115.963 17.584 115.963 17.424V15.048C115.963 14.888 116.019 14.752 116.131 14.64C116.243 14.512 116.379 14.448 116.539 14.448H118.939C119.099 14.448 119.235 14.512 119.347 14.64C119.459 14.752 119.515 14.888 119.515 15.048V17.424C119.515 17.584 119.459 17.72 119.347 17.832C119.235 17.944 119.099 18 118.939 18H116.539Z" fill="#111111"/>
    <path d="M127.161 18.24C125.545 18.24 124.305 17.72 123.441 16.68C122.577 15.64 122.113 14.256 122.049 12.528L122.025 11.736L122.049 10.968C122.097 9.288 122.553 7.92 123.417 6.864C124.297 5.808 125.545 5.28 127.161 5.28C128.713 5.28 129.945 5.808 130.857 6.864V1.536C130.857 1.36 130.913 1.224 131.025 1.128C131.137 1.016 131.273 0.959999 131.433 0.959999H133.473C133.649 0.959999 133.785 1.016 133.881 1.128C133.993 1.224 134.049 1.36 134.049 1.536V17.424C134.049 17.584 133.993 17.72 133.881 17.832C133.785 17.944 133.649 18 133.473 18H131.577C131.417 18 131.281 17.944 131.169 17.832C131.057 17.72 131.001 17.584 131.001 17.424V16.536C130.089 17.672 128.809 18.24 127.161 18.24ZM128.049 15.672C128.977 15.672 129.665 15.376 130.113 14.784C130.561 14.192 130.809 13.464 130.857 12.6C130.873 12.408 130.881 12.096 130.881 11.664C130.881 11.248 130.873 10.944 130.857 10.752C130.825 9.952 130.569 9.272 130.089 8.712C129.625 8.136 128.945 7.848 128.049 7.848C126.321 7.848 125.401 8.912 125.289 11.04L125.265 11.76L125.289 12.48C125.401 14.608 126.321 15.672 128.049 15.672ZM142.624 18.24C140.848 18.24 139.432 17.728 138.376 16.704C137.336 15.664 136.784 14.208 136.72 12.336L136.696 11.736L136.72 11.136C136.8 9.312 137.36 7.88 138.4 6.84C139.456 5.8 140.864 5.28 142.624 5.28C144.512 5.28 145.968 5.856 146.992 7.008C148.032 8.16 148.552 9.696 148.552 11.616V12.12C148.552 12.28 148.496 12.416 148.384 12.528C148.272 12.64 148.128 12.696 147.952 12.696H139.984V12.888C140.016 13.768 140.256 14.512 140.704 15.12C141.168 15.712 141.8 16.008 142.6 16.008C143.544 16.008 144.304 15.64 144.88 14.904C145.024 14.728 145.136 14.616 145.216 14.568C145.312 14.52 145.448 14.496 145.624 14.496H147.688C147.832 14.496 147.952 14.544 148.048 14.64C148.16 14.72 148.216 14.824 148.216 14.952C148.216 15.336 147.984 15.792 147.52 16.32C147.072 16.832 146.424 17.28 145.576 17.664C144.728 18.048 143.744 18.24 142.624 18.24ZM145.288 10.68V10.608C145.288 9.664 145.048 8.904 144.568 8.328C144.104 7.752 143.456 7.464 142.624 7.464C141.792 7.464 141.144 7.752 140.68 8.328C140.216 8.904 139.984 9.664 139.984 10.608V10.68H145.288ZM155.07 18C154.83 18 154.646 17.952 154.518 17.856C154.39 17.744 154.286 17.592 154.206 17.4L149.718 6.264L149.67 6.048C149.67 5.904 149.718 5.784 149.814 5.688C149.926 5.576 150.054 5.52 150.198 5.52H152.142C152.446 5.52 152.654 5.672 152.766 5.976L155.958 14.4L159.15 5.976C159.198 5.864 159.27 5.76 159.366 5.664C159.478 5.568 159.614 5.52 159.774 5.52H161.742C161.87 5.52 161.982 5.576 162.078 5.688C162.19 5.784 162.246 5.904 162.246 6.048C162.246 6.144 162.238 6.216 162.222 6.264L157.71 17.4C157.63 17.592 157.526 17.744 157.398 17.856C157.27 17.952 157.086 18 156.846 18H155.07Z" fill="#0075FF"/>
</svg>