<svg width="126" height="34" viewBox="0 0 126 34" fill="none" xmlns="http://www.w3.org/2000/svg">
    <path d="M5.63415 17.6451C5.63415 19.7736 7.28684 21.4353 9.29635 21.4353C10.8927 21.4353 11.8881 20.7258 11.8881 20.7258L13.691 24.404C13.691 24.404 11.9444 25.7857 8.52635 25.7857C4.07537 25.7857 0 22.2009 0 17.7198C0 13.2014 4.05659 9.56055 8.52635 9.56055C11.9444 9.56055 13.691 10.9982 13.691 10.9982L11.8881 14.6204C11.8881 14.6204 10.8927 13.9109 9.29635 13.9109C7.28684 13.8736 5.63415 15.554 5.63415 17.6451Z" fill="#111111"/>
    <path d="M20.884 17.2895C20.884 20.3142 21.6915 21.4718 23.9264 21.4718C26.1425 21.4718 26.9689 20.3142 26.9689 17.2895V10.0078H32.2837V18.5778C32.2837 23.7124 29.692 25.7849 23.9264 25.7849C18.1608 25.7849 15.5691 23.731 15.5691 18.5778V10.0078H20.884V17.2895Z" fill="#111111"/>
    <path d="M39.9836 18.3911C39.9836 20.7437 41.9744 21.5652 43.3266 21.5652C45.0356 21.5652 45.7868 21.2291 47.0827 19.8661L50.9327 21.7706C49.1861 24.6646 46.369 25.7662 42.9322 25.7662C38.2746 25.7662 34.4622 22.1253 34.4622 17.6629C34.4622 13.1819 38.2746 9.54102 42.9322 9.54102C47.6273 9.54102 51.1956 12.2857 51.1956 17.6629C51.1956 17.8683 51.1956 18.2044 51.158 18.3724H39.9836V18.3911ZM45.9934 15.4597C45.7492 13.854 44.6412 12.9765 43.0824 12.9765C41.2419 12.9765 40.2278 14.0594 40.1339 15.4597H45.9934Z" fill="#111111"/>
    <path d="M62.9004 9.98912H68.2153V12.1923H68.2717C68.2717 12.1923 69.9619 9.54102 72.9856 9.54102C74.9763 9.54102 76.3473 10.4932 76.3473 10.4932L74.1312 14.9743C74.1312 14.9743 73.1358 14.1341 71.3705 14.1341C68.6097 14.1341 68.2153 16.8601 68.2153 17.2335V25.2994H62.9004V9.98912Z" fill="#A7B7D3"/>
    <path d="M84.16 9.54102C86.2259 9.54102 87.9537 10.2318 89.212 11.4455V9.98912H94.5268V25.3181H89.2683V23.5817H89.212C88.0664 24.8326 86.2634 25.7662 84.16 25.7662C79.6527 25.7662 76.4976 22.144 76.4976 17.6629C76.4976 13.1819 79.6527 9.54102 84.16 9.54102ZM85.7563 21.2478C87.8222 21.2478 89.3246 19.7541 89.3246 17.6629C89.3246 15.5344 87.7283 14.0407 85.7563 14.0407C83.7468 14.0407 82.1505 15.5344 82.1505 17.6629C82.1505 19.7541 83.5966 21.2478 85.7563 21.2478Z" fill="#A7B7D3"/>
    <path d="M98.8276 4.29492H104.143V10.0083H107.392V14.0412H104.143V18.9144C104.143 20.352 104.499 21.0429 105.344 21.0429C106.039 21.0429 106.659 20.5574 106.659 20.5574L107.974 24.8331C107.974 24.8331 106.265 25.7853 104.067 25.7853C99.823 25.7853 98.8089 22.6486 98.8089 19.9226V14.0412H96.5928V10.0083H98.8089V4.29492H98.8276Z" fill="#A7B7D3"/>
    <path d="M114.209 18.3911C114.209 20.7437 116.2 21.5652 117.552 21.5652C119.261 21.5652 120.012 21.2291 121.308 19.8661L125.158 21.7706C123.411 24.6646 120.594 25.7662 117.158 25.7662C112.5 25.7662 108.688 22.1253 108.688 17.6629C108.688 13.1819 112.5 9.54102 117.158 9.54102C121.853 9.54102 125.421 12.2857 125.421 17.6629C125.421 17.8683 125.421 18.2044 125.383 18.3724H114.209V18.3911ZM120.219 15.4597C119.975 13.854 118.867 12.9765 117.308 12.9765C115.467 12.9765 114.453 14.0594 114.359 15.4597H120.219Z" fill="#A7B7D3"/>
    <path d="M57.7501 0H55.8721V34H57.7501V0Z" fill="#0075FF"/>
</svg>